<?xml version="1.0" standalone="no"?>
<!DOCTYPE svg PUBLIC "-//W3C//DTD SVG 20010904//EN"
 "http://www.w3.org/TR/2001/REC-SVG-20010904/DTD/svg10.dtd">
<svg version="1.0" xmlns="http://www.w3.org/2000/svg"
 width="700.000000pt" height="700.000000pt" viewBox="0 0 700.000000 700.000000"
 preserveAspectRatio="xMidYMid meet">
<metadata>
Created by potrace 1.14, written by Peter Selinger 2001-2017
</metadata>
<g transform="translate(0.000000,700.000000) scale(0.100000,-0.100000)"
fill="#000000" stroke="none">
<path d="M680 6975 c-109 -24 -271 -96 -335 -150 -162 -136 -255 -277 -308
-464 l-21 -76 -2 -2751 c-1 -1652 2 -2770 7 -2800 14 -73 17 -85 32 -134 57
-178 179 -338 336 -441 70 -45 194 -101 252 -113 13 -3 47 -9 74 -15 33 -7
962 -10 2780 -10 2638 -1 2733 0 2822 18 349 72 617 363 661 716 7 64 8 5433
0 5500 -11 89 -38 178 -83 270 -107 218 -305 379 -541 440 l-89 23 -2765 0
c-2121 -1 -2778 -3 -2820 -13z m3050 -1929 c13 -3 42 -8 65 -11 22 -4 72 -15
110 -26 329 -94 572 -258 781 -525 35 -45 64 -84 64 -87 0 -4 21 -36 46 -72
25 -36 44 -70 42 -75 -2 -5 -117 -97 -257 -204 l-254 -195 -25 47 c-29 56
-111 180 -160 242 -144 182 -320 291 -510 317 -148 20 -348 -2 -452 -50 -62
-28 -168 -107 -221 -164 -229 -245 -326 -700 -245 -1145 62 -341 273 -567 575
-615 56 -9 261 -10 316 -1 233 35 398 145 535 354 42 64 168 303 182 346 4 10
137 -47 463 -197 44 -20 90 -41 103 -46 24 -9 23 -9 -41 -134 -57 -108 -205
-344 -240 -380 -7 -7 -27 -32 -46 -56 -19 -24 -69 -78 -110 -119 -225 -222
-500 -348 -821 -376 -64 -5 -279 -5 -320 1 -19 2 -55 7 -80 10 -73 10 -102 15
-160 31 -30 8 -68 19 -85 23 -210 57 -480 245 -628 438 -141 184 -256 459
-283 678 -3 22 -7 46 -9 53 -8 23 -19 195 -18 297 0 209 27 390 89 586 137
439 377 750 710 921 146 75 289 119 434 135 30 3 57 7 59 9 5 5 364 -4 391
-10z"/>
</g>
</svg>
