<?xml version="1.0" standalone="no"?>
<!DOCTYPE svg PUBLIC "-//W3C//DTD SVG 20010904//EN"
 "http://www.w3.org/TR/2001/REC-SVG-20010904/DTD/svg10.dtd">
<svg version="1.0" xmlns="http://www.w3.org/2000/svg"
 width="700.000000pt" height="700.000000pt" viewBox="0 0 700.000000 700.000000"
 preserveAspectRatio="xMidYMid meet">
<metadata>
Created by potrace 1.14, written by Peter Selinger 2001-2017
</metadata>
<g transform="translate(0.000000,700.000000) scale(0.100000,-0.100000)"
fill="#000000" stroke="none">
<path d="M2447 5004 c-1 -1 -40 -5 -87 -8 -472 -38 -922 -324 -1163 -738 -205
-353 -264 -763 -165 -1148 130 -508 531 -917 1041 -1064 216 -63 171 -61 1432
-61 1236 0 1205 -1 1395 51 576 158 1015 647 1101 1229 13 88 16 311 5 390
-34 254 -114 473 -244 670 -248 375 -656 622 -1107 671 -54 6 -2201 13 -2208
8z m994 -501 c-150 -150 -253 -302 -322 -476 -27 -67 -76 -234 -83 -284 -3
-21 -10 -67 -15 -103 -9 -67 -7 -364 4 -435 30 -203 145 -467 279 -640 55 -70
175 -195 222 -232 19 -14 34 -28 34 -32 0 -8 -1086 -6 -1175 3 -180 17 -316
57 -472 140 -289 155 -503 425 -583 742 -29 112 -36 338 -14 454 34 183 109
358 213 497 150 202 361 353 600 428 162 50 202 53 838 54 l592 1 -118 -117z
m1307 103 c13 -3 31 -7 40 -10 9 -3 28 -7 42 -10 47 -8 155 -49 230 -86 315
-159 540 -458 616 -820 19 -88 26 -320 12 -411 -45 -303 -231 -594 -492 -770
-49 -33 -110 -71 -135 -84 -54 -27 -203 -81 -252 -90 -186 -36 -347 -36 -509
1 -346 78 -635 295 -793 594 -171 326 -172 719 -2 1060 71 144 224 323 359
420 131 95 318 172 492 204 77 14 338 16 392 2z"/>
</g>
</svg>
